# xmcd CD database file
#
# Track frame offsets:
#	150
#	23936
#	44737
#	67651
#	93610
#	115738
#	142148
#	169674
#	195381
#	220434
#	240609
#
# Disc length: 3523 seconds
#
# Revision: 0
# Processed by: cddbd v1.5.1PL2 Copyright (c) Steve Scherf et al.
# Submitted via: CDex 1.51
#
DISCID=9e0dc10b
DTITLE=Steve Guasch - Siguiendo la Tradicion
DYEAR=2005
DGENRE=Salsa
TTITLE0=Aqui te traigo sabrosura
TTITLE1=My favorite things
TTITLE2=Me Muero por mirarte
TTITLE3=Charly the giant
TTITLE4=Velveeta
TTITLE5=Mi lindo Puerto  Rico
TTITLE6=South of the boulevard
TTITLE7=Haciendo camino
TTITLE8=Busquenla
TTITLE9=Solar
TTITLE10=Softly (as in the morning sunrise)
EXTD=YEAR: 2005
EXTT0=
EXTT1=
EXTT2=
EXTT3=
EXTT4=
EXTT5=
EXTT6=
EXTT7=
EXTT8=
EXTT9=
EXTT10=
PLAYORDER=
